 <svg xmlns="http://www.w3.org/2000/svg" 
      xmlns:xlink="http://www.w3.org/1999/xlink" 
      height="300" width="300">
<g id="inner-svg" transform="scale(300 300)"><g></g><g><g transform="translate(0 0)"><line x1="0.02000001" y1="0.02000001" x2="0.98" y2="0.02000001" stroke="rgba(0,0,0,1)" stroke-width="0.002"></line><line x1="0.02000001" y1="0.02000001" x2="0.02000001" y2="0.98" stroke="rgba(0,0,0,1)" stroke-width="0.002"></line><line x1="0.02000001" y1="0.08000001" x2="0.98" y2="0.08000001" stroke="rgba(0,0,0,1)" stroke-width="0.002"></line><line x1="0.08000001" y1="0.02000001" x2="0.08000001" y2="0.98" stroke="rgba(0,0,0,1)" stroke-width="0.002"></line><line x1="0.02000001" y1="0.14000002" x2="0.98" y2="0.14000002" stroke="rgba(0,0,0,1)" stroke-width="0.002"></line><line x1="0.14000002" y1="0.02000001" x2="0.14000002" y2="0.98" stroke="rgba(0,0,0,1)" stroke-width="0.002"></line><line x1="0.02000001" y1="0.2" x2="0.98" y2="0.2" stroke="rgba(0,0,0,1)" stroke-width="0.002"></line><line x1="0.2" y1="0.02000001" x2="0.2" y2="0.98" stroke="rgba(0,0,0,1)" stroke-width="0.002"></line><line x1="0.02000001" y1="0.26" x2="0.98" y2="0.26" stroke="rgba(0,0,0,1)" stroke-width="0.002"></line><line x1="0.26" y1="0.02000001" x2="0.26" y2="0.98" stroke="rgba(0,0,0,1)" stroke-width="0.002"></line></g><g transform="translate(0 0)"><line x1="0.02000001" y1="0.32" x2="0.98" y2="0.32" stroke="rgba(0,0,0,1)" stroke-width="0.002"></line><line x1="0.32" y1="0.02000001" x2="0.32" y2="0.98" stroke="rgba(0,0,0,1)" stroke-width="0.002"></line><line x1="0.02000001" y1="0.38" x2="0.98" y2="0.38" stroke="rgba(0,0,0,1)" stroke-width="0.002"></line><line x1="0.38" y1="0.02000001" x2="0.38" y2="0.98" stroke="rgba(0,0,0,1)" stroke-width="0.002"></line><line x1="0.02000001" y1="0.44" x2="0.98" y2="0.44" stroke="rgba(0,0,0,1)" stroke-width="0.002"></line><line x1="0.44" y1="0.02000001" x2="0.44" y2="0.98" stroke="rgba(0,0,0,1)" stroke-width="0.002"></line><line x1="0.02000001" y1="0.5" x2="0.98" y2="0.5" stroke="rgba(0,0,0,1)" stroke-width="0.002"></line><line x1="0.5" y1="0.02000001" x2="0.5" y2="0.98" stroke="rgba(0,0,0,1)" stroke-width="0.002"></line><line x1="0.02000001" y1="0.55999994" x2="0.98" y2="0.55999994" stroke="rgba(0,0,0,1)" stroke-width="0.002"></line><line x1="0.55999994" y1="0.02000001" x2="0.55999994" y2="0.98" stroke="rgba(0,0,0,1)" stroke-width="0.002"></line></g><g transform="translate(0 0)"><line x1="0.02000001" y1="0.62" x2="0.98" y2="0.62" stroke="rgba(0,0,0,1)" stroke-width="0.002"></line><line x1="0.62" y1="0.02000001" x2="0.62" y2="0.98" stroke="rgba(0,0,0,1)" stroke-width="0.002"></line><line x1="0.02000001" y1="0.67999995" x2="0.98" y2="0.67999995" stroke="rgba(0,0,0,1)" stroke-width="0.002"></line><line x1="0.67999995" y1="0.02000001" x2="0.67999995" y2="0.98" stroke="rgba(0,0,0,1)" stroke-width="0.002"></line><line x1="0.02000001" y1="0.74" x2="0.98" y2="0.74" stroke="rgba(0,0,0,1)" stroke-width="0.002"></line><line x1="0.74" y1="0.02000001" x2="0.74" y2="0.98" stroke="rgba(0,0,0,1)" stroke-width="0.002"></line><line x1="0.02000001" y1="0.79999995" x2="0.98" y2="0.79999995" stroke="rgba(0,0,0,1)" stroke-width="0.002"></line><line x1="0.79999995" y1="0.02000001" x2="0.79999995" y2="0.98" stroke="rgba(0,0,0,1)" stroke-width="0.002"></line><line x1="0.02000001" y1="0.86" x2="0.98" y2="0.86" stroke="rgba(0,0,0,1)" stroke-width="0.002"></line><line x1="0.86" y1="0.02000001" x2="0.86" y2="0.98" stroke="rgba(0,0,0,1)" stroke-width="0.002"></line></g><g transform="translate(0 0)"><line x1="0.02000001" y1="0.91999996" x2="0.98" y2="0.91999996" stroke="rgba(0,0,0,1)" stroke-width="0.002"></line><line x1="0.91999996" y1="0.02000001" x2="0.91999996" y2="0.98" stroke="rgba(0,0,0,1)" stroke-width="0.002"></line><line x1="0.02000001" y1="0.98" x2="0.98" y2="0.98" stroke="rgba(0,0,0,1)" stroke-width="0.002"></line><line x1="0.98" y1="0.02000001" x2="0.98" y2="0.98" stroke="rgba(0,0,0,1)" stroke-width="0.002"></line></g><g transform="translate(0 0)"><line x1="0.02000001" y1="0.02000001" x2="0.32" y2="0.02000001" stroke="rgba(0,255,0,0.5)" stroke-width="0.008"></line><line x1="0.02000001" y1="0.02000001" x2="0.02000001" y2="0.32" stroke="rgba(0,255,0,0.5)" stroke-width="0.008"></line><line x1="0.02000001" y1="0.32" x2="0.14000002" y2="0.32" stroke="rgba(0,255,0,0.5)" stroke-width="0.008"></line><line x1="0.14000002" y1="0.32" x2="0.14000002" y2="0.26" stroke="rgba(0,255,0,0.5)" stroke-width="0.008"></line><line x1="0.14000002" y1="0.26" x2="0.20000002" y2="0.26" stroke="rgba(0,255,0,0.5)" stroke-width="0.008"></line><line x1="0.20000002" y1="0.26" x2="0.20000002" y2="0.19999999" stroke="rgba(0,255,0,0.5)" stroke-width="0.008"></line><line x1="0.20000002" y1="0.19999999" x2="0.26000002" y2="0.19999999" stroke="rgba(0,255,0,0.5)" stroke-width="0.008"></line><line x1="0.26000002" y1="0.19999999" x2="0.26000002" y2="0.13999999" stroke="rgba(0,255,0,0.5)" stroke-width="0.008"></line><line x1="0.26000002" y1="0.13999999" x2="0.32000002" y2="0.13999999" stroke="rgba(0,255,0,0.5)" stroke-width="0.008"></line><line x1="0.32000002" y1="0.13999999" x2="0.32000002" y2="0.019999985" stroke="rgba(0,255,0,0.5)" stroke-width="0.008"></line></g><g transform="translate(0 0)"><line x1="0.98" y1="0.98" x2="0.68" y2="0.98" stroke="rgba(255,0,0,0.5)" stroke-width="0.008"></line><line x1="0.98" y1="0.98" x2="0.98" y2="0.68" stroke="rgba(255,0,0,0.5)" stroke-width="0.008"></line><line x1="0.98" y1="0.68" x2="0.86" y2="0.68" stroke="rgba(255,0,0,0.5)" stroke-width="0.008"></line><line x1="0.86" y1="0.68" x2="0.86" y2="0.74" stroke="rgba(255,0,0,0.5)" stroke-width="0.008"></line><line x1="0.86" y1="0.74" x2="0.79999995" y2="0.74" stroke="rgba(255,0,0,0.5)" stroke-width="0.008"></line><line x1="0.79999995" y1="0.74" x2="0.79999995" y2="0.8" stroke="rgba(255,0,0,0.5)" stroke-width="0.008"></line><line x1="0.79999995" y1="0.8" x2="0.74" y2="0.8" stroke="rgba(255,0,0,0.5)" stroke-width="0.008"></line><line x1="0.74" y1="0.8" x2="0.74" y2="0.86" stroke="rgba(255,0,0,0.5)" stroke-width="0.008"></line><line x1="0.74" y1="0.86" x2="0.67999995" y2="0.86" stroke="rgba(255,0,0,0.5)" stroke-width="0.008"></line><line x1="0.67999995" y1="0.86" x2="0.67999995" y2="0.98" stroke="rgba(255,0,0,0.5)" stroke-width="0.008"></line></g><g transform="translate(0 0)"><line x1="0.02000001" y1="0.02000001" x2="0.44" y2="0.02000001" stroke="rgba(0,0,0,0.5)" stroke-width="0.008"></line><line x1="0.02000001" y1="0.02000001" x2="0.02000001" y2="0.44" stroke="rgba(0,0,0,0.5)" stroke-width="0.008"></line><line x1="0.02000001" y1="0.44" x2="0.14000002" y2="0.44" stroke="rgba(0,0,0,0.5)" stroke-width="0.008"></line><line x1="0.14000002" y1="0.44" x2="0.14000002" y2="0.38" stroke="rgba(0,0,0,0.5)" stroke-width="0.008"></line><line x1="0.14000002" y1="0.38" x2="0.20000002" y2="0.38" stroke="rgba(0,0,0,0.5)" stroke-width="0.008"></line><line x1="0.20000002" y1="0.38" x2="0.20000002" y2="0.32" stroke="rgba(0,0,0,0.5)" stroke-width="0.008"></line><line x1="0.20000002" y1="0.32" x2="0.26000002" y2="0.32" stroke="rgba(0,0,0,0.5)" stroke-width="0.008"></line><line x1="0.26000002" y1="0.32" x2="0.26000002" y2="0.26" stroke="rgba(0,0,0,0.5)" stroke-width="0.008"></line><line x1="0.26000002" y1="0.26" x2="0.32000002" y2="0.26" stroke="rgba(0,0,0,0.5)" stroke-width="0.008"></line><line x1="0.32000002" y1="0.26" x2="0.32000002" y2="0.19999999" stroke="rgba(0,0,0,0.5)" stroke-width="0.008"></line></g><g transform="translate(0 0)"><line x1="0.32000002" y1="0.19999999" x2="0.38000003" y2="0.19999999" stroke="rgba(0,0,0,0.5)" stroke-width="0.008"></line><line x1="0.38000003" y1="0.19999999" x2="0.38000003" y2="0.13999999" stroke="rgba(0,0,0,0.5)" stroke-width="0.008"></line><line x1="0.38000003" y1="0.13999999" x2="0.44000003" y2="0.13999999" stroke="rgba(0,0,0,0.5)" stroke-width="0.008"></line><line x1="0.44000003" y1="0.13999999" x2="0.44000003" y2="0.019999985" stroke="rgba(0,0,0,0.5)" stroke-width="0.008"></line></g><g transform="translate(0 0)"><line x1="0.98" y1="0.98" x2="0.56" y2="0.98" stroke="rgba(0,0,0,0.5)" stroke-width="0.008"></line><line x1="0.98" y1="0.98" x2="0.98" y2="0.56" stroke="rgba(0,0,0,0.5)" stroke-width="0.008"></line><line x1="0.98" y1="0.56" x2="0.86" y2="0.56" stroke="rgba(0,0,0,0.5)" stroke-width="0.008"></line><line x1="0.86" y1="0.56" x2="0.86" y2="0.62" stroke="rgba(0,0,0,0.5)" stroke-width="0.008"></line><line x1="0.86" y1="0.62" x2="0.79999995" y2="0.62" stroke="rgba(0,0,0,0.5)" stroke-width="0.008"></line><line x1="0.79999995" y1="0.62" x2="0.79999995" y2="0.68" stroke="rgba(0,0,0,0.5)" stroke-width="0.008"></line><line x1="0.79999995" y1="0.68" x2="0.74" y2="0.68" stroke="rgba(0,0,0,0.5)" stroke-width="0.008"></line><line x1="0.74" y1="0.68" x2="0.74" y2="0.74" stroke="rgba(0,0,0,0.5)" stroke-width="0.008"></line><line x1="0.74" y1="0.74" x2="0.67999995" y2="0.74" stroke="rgba(0,0,0,0.5)" stroke-width="0.008"></line><line x1="0.67999995" y1="0.74" x2="0.67999995" y2="0.8" stroke="rgba(0,0,0,0.5)" stroke-width="0.008"></line></g><g transform="translate(0 0)"><line x1="0.67999995" y1="0.8" x2="0.62" y2="0.8" stroke="rgba(0,0,0,0.5)" stroke-width="0.008"></line><line x1="0.62" y1="0.8" x2="0.62" y2="0.86" stroke="rgba(0,0,0,0.5)" stroke-width="0.008"></line><line x1="0.62" y1="0.86" x2="0.55999994" y2="0.86" stroke="rgba(0,0,0,0.5)" stroke-width="0.008"></line><line x1="0.55999994" y1="0.86" x2="0.55999994" y2="0.98" stroke="rgba(0,0,0,0.5)" stroke-width="0.008"></line></g></g><g><g transform="translate(0.29000002 0.050000012)"><circle r="0.024" cx="0" cy="0" fill="rgba(0,0,0,1)"></circle><circle r="0.021" cx="0" cy="0" fill="rgba(204,51,51,1)"></circle></g><g transform="translate(0.110000014 0.23000002)"><circle r="0.024" cx="0" cy="0" fill="rgba(0,0,0,1)"></circle><circle r="0.021" cx="0" cy="0" fill="rgba(204,51,51,1)"></circle></g><g transform="translate(0.29000002 0.110000014)"><circle r="0.024" cx="0" cy="0" fill="rgba(0,0,0,1)"></circle><circle r="0.021" cx="0" cy="0" fill="rgba(204,51,51,1)"></circle></g><g transform="translate(0.95 0.83)"><circle r="0.024" cx="0" cy="0" fill="rgba(0,0,0,1)"></circle><circle r="0.021" cx="0" cy="0" fill="rgba(51,204,51,1)"></circle></g><g transform="translate(0.110000014 0.29000002)"><circle r="0.024" cx="0" cy="0" fill="rgba(0,0,0,1)"></circle><circle r="0.021" cx="0" cy="0" fill="rgba(204,51,51,1)"></circle></g><g transform="translate(0.83 0.95)"><circle r="0.024" cx="0" cy="0" fill="rgba(0,0,0,1)"></circle><circle r="0.021" cx="0" cy="0" fill="rgba(51,204,51,1)"></circle></g><g transform="translate(0.110000014 0.110000014)"><circle r="0.024" cx="0" cy="0" fill="rgba(0,0,0,1)"></circle><circle r="0.021" cx="0" cy="0" fill="rgba(204,51,51,1)"></circle></g><g transform="translate(0.77 0.89)"><circle r="0.024" cx="0" cy="0" fill="rgba(0,0,0,1)"></circle><circle r="0.021" cx="0" cy="0" fill="rgba(51,204,51,1)"></circle></g><g transform="translate(0.17000002 0.17000002)"><circle r="0.024" cx="0" cy="0" fill="rgba(0,0,0,1)"></circle><circle r="0.021" cx="0" cy="0" fill="rgba(204,51,51,1)"></circle></g><g transform="translate(0.050000012 0.23000002)"><circle r="0.024" cx="0" cy="0" fill="rgba(0,0,0,1)"></circle><circle r="0.021" cx="0" cy="0" fill="rgba(204,51,51,1)"></circle></g><g transform="translate(0.89 0.95)"><circle r="0.024" cx="0" cy="0" fill="rgba(0,0,0,1)"></circle><circle r="0.021" cx="0" cy="0" fill="rgba(51,204,51,1)"></circle></g><g transform="translate(0.110000014 0.050000012)"><circle r="0.024" cx="0" cy="0" fill="rgba(0,0,0,1)"></circle><circle r="0.021" cx="0" cy="0" fill="rgba(204,51,51,1)"></circle></g><g transform="translate(0.83 0.89)"><circle r="0.024" cx="0" cy="0" fill="rgba(0,0,0,1)"></circle><circle r="0.021" cx="0" cy="0" fill="rgba(51,204,51,1)"></circle></g><g transform="translate(0.050000012 0.110000014)"><circle r="0.024" cx="0" cy="0" fill="rgba(0,0,0,1)"></circle><circle r="0.021" cx="0" cy="0" fill="rgba(204,51,51,1)"></circle></g><g transform="translate(0.23000002 0.050000012)"><circle r="0.024" cx="0" cy="0" fill="rgba(0,0,0,1)"></circle><circle r="0.021" cx="0" cy="0" fill="rgba(204,51,51,1)"></circle></g><g transform="translate(0.83 0.77)"><circle r="0.024" cx="0" cy="0" fill="rgba(0,0,0,1)"></circle><circle r="0.021" cx="0" cy="0" fill="rgba(51,204,51,1)"></circle></g><g transform="translate(0.050000012 0.29000002)"><circle r="0.024" cx="0" cy="0" fill="rgba(0,0,0,1)"></circle><circle r="0.021" cx="0" cy="0" fill="rgba(204,51,51,1)"></circle></g><g transform="translate(0.71 0.89)"><circle r="0.024" cx="0" cy="0" fill="rgba(0,0,0,1)"></circle><circle r="0.021" cx="0" cy="0" fill="rgba(51,204,51,1)"></circle></g><g transform="translate(0.95 0.77)"><circle r="0.024" cx="0" cy="0" fill="rgba(0,0,0,1)"></circle><circle r="0.021" cx="0" cy="0" fill="rgba(51,204,51,1)"></circle></g><g transform="translate(0.83 0.83)"><circle r="0.024" cx="0" cy="0" fill="rgba(0,0,0,1)"></circle><circle r="0.021" cx="0" cy="0" fill="rgba(51,204,51,1)"></circle></g><g transform="translate(0.89 0.83)"><circle r="0.024" cx="0" cy="0" fill="rgba(0,0,0,1)"></circle><circle r="0.021" cx="0" cy="0" fill="rgba(51,204,51,1)"></circle></g><g transform="translate(0.95 0.89)"><circle r="0.024" cx="0" cy="0" fill="rgba(0,0,0,1)"></circle><circle r="0.021" cx="0" cy="0" fill="rgba(51,204,51,1)"></circle></g><g transform="translate(0.17000002 0.050000012)"><circle r="0.024" cx="0" cy="0" fill="rgba(0,0,0,1)"></circle><circle r="0.021" cx="0" cy="0" fill="rgba(204,51,51,1)"></circle></g><g transform="translate(0.17000002 0.23000002)"><circle r="0.024" cx="0" cy="0" fill="rgba(0,0,0,1)"></circle><circle r="0.021" cx="0" cy="0" fill="rgba(204,51,51,1)"></circle></g><g transform="translate(0.71 0.95)"><circle r="0.024" cx="0" cy="0" fill="rgba(0,0,0,1)"></circle><circle r="0.021" cx="0" cy="0" fill="rgba(51,204,51,1)"></circle></g><g transform="translate(0.95 0.71)"><circle r="0.024" cx="0" cy="0" fill="rgba(0,0,0,1)"></circle><circle r="0.021" cx="0" cy="0" fill="rgba(51,204,51,1)"></circle></g><g transform="translate(0.77 0.95)"><circle r="0.024" cx="0" cy="0" fill="rgba(0,0,0,1)"></circle><circle r="0.021" cx="0" cy="0" fill="rgba(51,204,51,1)"></circle></g><g transform="translate(0.23000002 0.110000014)"><circle r="0.024" cx="0" cy="0" fill="rgba(0,0,0,1)"></circle><circle r="0.021" cx="0" cy="0" fill="rgba(204,51,51,1)"></circle></g><g transform="translate(0.89 0.71)"><circle r="0.024" cx="0" cy="0" fill="rgba(0,0,0,1)"></circle><circle r="0.021" cx="0" cy="0" fill="rgba(51,204,51,1)"></circle></g><g transform="translate(0.050000012 0.050000012)"><circle r="0.024" cx="0" cy="0" fill="rgba(0,0,0,1)"></circle><circle r="0.021" cx="0" cy="0" fill="rgba(204,51,51,1)"></circle></g><g transform="translate(0.110000014 0.17000002)"><circle r="0.024" cx="0" cy="0" fill="rgba(0,0,0,1)"></circle><circle r="0.021" cx="0" cy="0" fill="rgba(204,51,51,1)"></circle></g><g transform="translate(0.89 0.77)"><circle r="0.024" cx="0" cy="0" fill="rgba(0,0,0,1)"></circle><circle r="0.021" cx="0" cy="0" fill="rgba(51,204,51,1)"></circle></g><g transform="translate(0.77 0.83)"><circle r="0.024" cx="0" cy="0" fill="rgba(0,0,0,1)"></circle><circle r="0.021" cx="0" cy="0" fill="rgba(51,204,51,1)"></circle></g><g transform="translate(0.17000002 0.110000014)"><circle r="0.024" cx="0" cy="0" fill="rgba(0,0,0,1)"></circle><circle r="0.021" cx="0" cy="0" fill="rgba(204,51,51,1)"></circle></g><g transform="translate(0.89 0.89)"><circle r="0.024" cx="0" cy="0" fill="rgba(0,0,0,1)"></circle><circle r="0.021" cx="0" cy="0" fill="rgba(51,204,51,1)"></circle></g><g transform="translate(0.95 0.95)"><circle r="0.024" cx="0" cy="0" fill="rgba(0,0,0,1)"></circle><circle r="0.021" cx="0" cy="0" fill="rgba(51,204,51,1)"></circle></g><g transform="translate(0.23000002 0.17000002)"><circle r="0.024" cx="0" cy="0" fill="rgba(0,0,0,1)"></circle><circle r="0.021" cx="0" cy="0" fill="rgba(204,51,51,1)"></circle></g><g transform="translate(0.050000012 0.17000002) scale(1) rotate(0)"><circle r="0.024" cx="0" cy="0" fill="rgba(0,0,0,1)"></circle><circle r="0.021" cx="0" cy="0" fill="rgba(204,51,51,1)"></circle></g></g><g></g><g></g><g></g><g></g><g></g><g></g><g></g><g></g><g></g><g></g><g></g><g></g><g></g><g></g><g></g><g></g><g></g><g></g><g></g><g></g><g></g><g></g><g></g><g></g><g></g><g></g><g></g><g></g><g></g><g></g><g></g><g></g><g></g><g></g><g></g><g></g><g></g><g></g><g></g><g></g><g></g><g></g><g></g><g></g><g></g><g></g><g></g><g></g><g></g><g></g><g></g><g></g><g></g><g></g><g></g><g></g><g></g><g></g><g></g><g></g><g></g><g></g><g></g><g></g><g></g><g></g><g></g><g></g><g></g><g></g><g></g><g></g><g></g><g></g><g></g><g></g><g></g><g></g><g></g><g></g><g></g><g></g><g></g><g></g><g></g><g></g><g></g><g></g><g></g><g></g><g></g><g></g><g></g><g></g><g></g><g></g><g></g><g></g><g></g><g></g><g></g><g></g><g></g><g></g><g></g><g></g><g></g><g></g><g></g><g></g><g></g><g></g><g></g><g></g><g></g><g></g><g></g><g></g><g></g><g></g><g></g><g></g><g></g><g></g><g></g><g></g><g></g><g></g><g></g><g></g><g></g><g></g><g></g><g></g><g></g><g></g><g></g><g></g><g></g><g></g><g></g><g></g><g></g><g></g><g></g><g></g><g></g><g></g><g></g><g></g><g></g><g></g><g></g><g></g><g></g><g></g><g></g><g></g><g></g><g></g><g></g><g></g><g></g><g></g><g></g><g></g><g></g><g></g><g></g><g></g><g></g><g></g><g></g><g></g><g></g><g></g><g></g><g></g><g></g><g></g><g></g><g></g><g></g><g></g><g></g><g></g><g></g><g></g><g></g><g></g><g></g><g></g><g></g><g></g><g></g><g></g><g></g><g></g><g></g><g></g><g></g><g></g><g></g><g></g><g></g><g></g><g></g><g></g><g></g><g></g><g></g><g></g><g></g><g></g><g></g><g></g><g></g><g></g><g></g><g></g><g></g><g></g><g></g><g></g><g></g><g></g><g></g><g></g><g></g><g></g><g></g><g></g><g></g><g></g><g></g><g></g><g></g><g></g><g></g><g></g><g></g><g></g><g></g><g></g><g></g><g></g><g></g><g></g><g></g><g></g><g></g><g></g><g></g></g>
</svg>
