 <svg xmlns="http://www.w3.org/2000/svg" 
      xmlns:xlink="http://www.w3.org/1999/xlink" 
      height="200" width="200">
            <g id="inner-svg" transform="scale(200 200)"><g></g><g><g transform="translate(0.18499988 0.5815) scale(1) rotate(0)"><circle r="0.031499997" cx="0" cy="0" fill="rgba(204,51,51,1)"></circle><g transform="translate(-0.007874999 0.007874999) scale(0.0026249997 0.0026249997)"><text font-size="12" stroke="rgba(0,0,0,1)">1</text></g></g><g transform="translate(0.905 0.5815) scale(1) rotate(0)"><circle r="0.031499997" cx="0" cy="0" fill="rgba(51,204,51,1)"></circle><g transform="translate(-0.007874999 0.007874999) scale(0.0026249997 0.0026249997)"><text font-size="12" stroke="rgba(0,0,0,1)">2</text></g></g><g transform="translate(0.6350001 0.5815) scale(1.5999999) rotate(0)"><circle r="0.031499997" cx="0" cy="0" fill="rgba(51,51,204,1)"></circle><g transform="translate(-0.007874999 0.007874999) scale(0.0026249997 0.0026249997)"><text font-size="12" stroke="rgba(0,0,0,1)">3</text></g></g><g transform="translate(0.18499988 0.6565) scale(1) rotate(0)"><circle r="0.031499997" cx="0" cy="0" fill="rgba(178.5,76.5,76.5,1)"></circle><g transform="translate(-0.007874999 0.007874999) scale(0.0026249997 0.0026249997)"><text font-size="12" stroke="rgba(0,0,0,1)">4</text></g></g><g transform="translate(0.18500012 0.73149997) scale(1) rotate(0)"><circle r="0.031499997" cx="0" cy="0" fill="rgba(76.5,178.5,76.5,1)"></circle><g transform="translate(-0.007874999 0.007874999) scale(0.0026249997 0.0026249997)"><text font-size="12" stroke="rgba(0,0,0,1)">5</text></g></g><g transform="translate(0.81500006 0.5815) scale(1) rotate(0)"><circle r="0.031499997" cx="0" cy="0" fill="rgba(76.5,76.5,178.5,1)"></circle><g transform="translate(-0.007874999 0.007874999) scale(0.0026249997 0.0026249997)"><text font-size="12" stroke="rgba(0,0,0,1)">6</text></g></g><g transform="translate(0 0)"><line x1="0.05" y1="0.5" x2="0.95" y2="0.5" stroke="rgba(0,0,0,1)" stroke-width="0.004"></line></g><g transform="translate(0.05 0.5)"><line x1="0" y1="-0.05" x2="0" y2="0.05" stroke="rgba(0,0,0,1)" stroke-width="0.004"></line></g><g transform="translate(0.14 0.5)"><line x1="0" y1="-0.05" x2="0" y2="0.05" stroke="rgba(0,0,0,1)" stroke-width="0.004"></line></g><g transform="translate(0.22999999 0.5)"><line x1="0" y1="-0.05" x2="0" y2="0.05" stroke="rgba(0,0,0,1)" stroke-width="0.004"></line></g><g transform="translate(0.32 0.5)"><line x1="0" y1="-0.05" x2="0" y2="0.05" stroke="rgba(0,0,0,1)" stroke-width="0.004"></line></g><g transform="translate(0.41 0.5)"><line x1="0" y1="-0.05" x2="0" y2="0.05" stroke="rgba(0,0,0,1)" stroke-width="0.004"></line></g><g transform="translate(0.5 0.5)"><line x1="0" y1="-0.05" x2="0" y2="0.05" stroke="rgba(0,0,0,1)" stroke-width="0.004"></line></g><g transform="translate(0.59 0.5)"><line x1="0" y1="-0.05" x2="0" y2="0.05" stroke="rgba(0,0,0,1)" stroke-width="0.004"></line></g><g transform="translate(0.68 0.5)"><line x1="0" y1="-0.05" x2="0" y2="0.05" stroke="rgba(0,0,0,1)" stroke-width="0.004"></line></g><g transform="translate(0.77 0.5)"><line x1="0" y1="-0.05" x2="0" y2="0.05" stroke="rgba(0,0,0,1)" stroke-width="0.004"></line></g><g transform="translate(0.85999995 0.5)"><line x1="0" y1="-0.05" x2="0" y2="0.05" stroke="rgba(0,0,0,1)" stroke-width="0.004"></line></g><g transform="translate(0.95 0.5)"><line x1="0" y1="-0.05" x2="0" y2="0.05" stroke="rgba(0,0,0,1)" stroke-width="0.004"></line></g></g></g>
</svg>
