<svg id="canvas">
            <g id="inner-svg" transform="scale(431 431)"><g></g><g><g transform="translate(0.81499994 0.5815) scale(1) rotate(0)"><circle r="0.031499997" cx="0" cy="0" fill="rgba(204,51,51,1)"></circle><g transform="translate(-0.007874999 0.007874999) scale(0.0026249997 0.0026249997)"><text font-size="12" stroke="rgba(0,0,0,1)">1</text></g></g><g transform="translate(0.09499997 0.5815) scale(1.5999999) rotate(0)"><circle r="0.031499997" cx="0" cy="0" fill="rgba(51,204,51,1)"></circle><g transform="translate(-0.007874999 0.007874999) scale(0.0026249997 0.0026249997)"><text font-size="12" stroke="rgba(0,0,0,1)">2</text></g></g><g transform="translate(0.18499999 0.5815) scale(1) rotate(0)"><circle r="0.031499997" cx="0" cy="0" fill="rgba(51,51,204,1)"></circle><g transform="translate(-0.007874999 0.007874999) scale(0.0026249997 0.0026249997)"><text font-size="12" stroke="rgba(0,0,0,1)">3</text></g></g><g transform="translate(0.81499994 0.6565) scale(1) rotate(0)"><circle r="0.031499997" cx="0" cy="0" fill="rgba(51,153,153,1)"></circle><g transform="translate(-0.007874999 0.007874999) scale(0.0026249997 0.0026249997)"><text font-size="12" stroke="rgba(0,0,0,1)">4</text></g></g><g transform="translate(0.09500003 0.6565) scale(1.5999999) rotate(0)"><circle r="0.031499997" cx="0" cy="0" fill="rgba(153,51,153,1)"></circle><g transform="translate(-0.007874999 0.007874999) scale(0.0026249997 0.0026249997)"><text font-size="12" stroke="rgba(0,0,0,1)">5</text></g></g><g transform="translate(0.18499994 0.6565) scale(1) rotate(0)"><circle r="0.031499997" cx="0" cy="0" fill="rgba(153,153,51,1)"></circle><g transform="translate(-0.007874999 0.007874999) scale(0.0026249997 0.0026249997)"><text font-size="12" stroke="rgba(0,0,0,1)">6</text></g></g><g transform="translate(0 0)"><line x1="0.05" y1="0.5" x2="0.95" y2="0.5" stroke="rgba(0,0,0,1)" stroke-width="0.004"></line></g><g transform="translate(0.05 0.5)"><line x1="0" y1="-0.05" x2="0" y2="0.05" stroke="rgba(0,0,0,1)" stroke-width="0.004"></line></g><g transform="translate(0.14 0.5)"><line x1="0" y1="-0.05" x2="0" y2="0.05" stroke="rgba(0,0,0,1)" stroke-width="0.004"></line></g><g transform="translate(0.22999999 0.5)"><line x1="0" y1="-0.05" x2="0" y2="0.05" stroke="rgba(0,0,0,1)" stroke-width="0.004"></line></g><g transform="translate(0.32 0.5)"><line x1="0" y1="-0.05" x2="0" y2="0.05" stroke="rgba(0,0,0,1)" stroke-width="0.004"></line></g><g transform="translate(0.41 0.5)"><line x1="0" y1="-0.05" x2="0" y2="0.05" stroke="rgba(0,0,0,1)" stroke-width="0.004"></line></g><g transform="translate(0.5 0.5)"><line x1="0" y1="-0.05" x2="0" y2="0.05" stroke="rgba(0,0,0,1)" stroke-width="0.004"></line></g><g transform="translate(0.59 0.5)"><line x1="0" y1="-0.05" x2="0" y2="0.05" stroke="rgba(0,0,0,1)" stroke-width="0.004"></line></g><g transform="translate(0.68 0.5)"><line x1="0" y1="-0.05" x2="0" y2="0.05" stroke="rgba(0,0,0,1)" stroke-width="0.004"></line></g><g transform="translate(0.77 0.5)"><line x1="0" y1="-0.05" x2="0" y2="0.05" stroke="rgba(0,0,0,1)" stroke-width="0.004"></line></g><g transform="translate(0.85999995 0.5)"><line x1="0" y1="-0.05" x2="0" y2="0.05" stroke="rgba(0,0,0,1)" stroke-width="0.004"></line></g><g transform="translate(0.95 0.5)"><line x1="0" y1="-0.05" x2="0" y2="0.05" stroke="rgba(0,0,0,1)" stroke-width="0.004"></line></g></g><g></g><g></g><g></g><g></g><g></g><g></g><g></g><g></g><g></g><g></g><g></g><g></g><g></g><g></g><g></g><g></g><g></g><g></g><g></g><g></g><g></g><g></g><g></g><g></g><g></g><g></g><g></g><g></g><g></g><g></g><g></g><g></g><g></g><g></g><g></g><g></g><g></g><g></g><g></g><g></g><g></g><g></g><g></g><g></g><g></g><g></g><g></g><g></g><g></g><g></g><g></g><g></g><g></g><g></g><g></g><g></g><g></g><g></g><g></g><g></g><g></g><g></g><g></g><g></g><g></g><g></g><g></g><g></g><g></g><g></g><g></g><g></g><g></g><g></g><g></g><g></g><g></g><g></g><g></g><g></g><g></g><g></g><g></g><g></g><g></g><g></g><g></g><g></g><g></g><g></g><g></g><g></g><g></g><g></g><g></g><g></g><g></g><g></g><g></g><g></g><g></g><g></g><g></g><g></g><g></g><g></g><g></g><
        </svg>
